<svg xmlns="http://www.w3.org/2000/svg" viewBox="0 0 36.62 32.78">
    <defs>
        <style>
            .svg_9bXYREEK{fill:none!important}.svg_Hr3uVvrA{stroke:currentColor;stroke-miterlimit:10}
        </style>
    </defs>
    <path d="M4.65 1.54a3.11 3.11 0 1 0 3.11 3.11 3.1 3.1 0 0 0-3.11-3.11zm0 11.72a3.11 3.11 0 1 0 3.11 3.11 3.1 3.1 0 0 0-3.11-3.11zM18.31 25a3.11 3.11 0 1 0 3.11 3.11A3.1 3.1 0 0 0 18.31 25zm0-11.74a3.11 3.11 0 1 0 3.11 3.11 3.1 3.1 0 0 0-3.11-3.11zM32 7.76a3.11 3.11 0 1 0-3.11-3.11A3.1 3.1 0 0 0 32 7.76zM4.65 25a3.11 3.11 0 1 0 3.11 3.11A3.1 3.1 0 0 0 4.65 25zM32 13.26a3.11 3.11 0 1 0 3.11 3.11A3.1 3.1 0 0 0 32 13.26zM32 25a3.11 3.11 0 1 0 3.11 3.11A3.1 3.1 0 0 0 32 25zM18.31 1.54a3.11 3.11 0 1 0 3.11 3.11 3.1 3.1 0 0 0-3.11-3.11z"
          class="svg_9bXYREEK"/>
    <path d="M18.31 12.22a4.15 4.15 0 1 0 4.15 4.15 4.16 4.16 0 0 0-4.15-4.15zm0 7.26a3.11 3.11 0 1 1 3.11-3.11 3.1 3.1 0 0 1-3.11 3.12zM32 12.22a4.15 4.15 0 1 0 4.15 4.15A4.16 4.16 0 0 0 32 12.22zm0 7.26a3.11 3.11 0 1 1 3.11-3.11A3.1 3.1 0 0 1 32 19.49zM32 8.8a4.15 4.15 0 1 0-4.15-4.15A4.16 4.16 0 0 0 32 8.8zm0-7.26a3.11 3.11 0 1 1-3.11 3.11A3.1 3.1 0 0 1 32 1.54zM4.65 24a4.15 4.15 0 1 0 4.15 4.13A4.16 4.16 0 0 0 4.65 24zm0 7.26a3.11 3.11 0 1 1 3.11-3.11 3.1 3.1 0 0 1-3.11 3.1zM18.31.5a4.15 4.15 0 1 0 4.15 4.15A4.16 4.16 0 0 0 18.31.5zm0 7.26a3.11 3.11 0 1 1 3.11-3.11 3.1 3.1 0 0 1-3.11 3.11zm0 16.24a4.15 4.15 0 1 0 4.15 4.15A4.16 4.16 0 0 0 18.31 24zm0 7.26a3.11 3.11 0 1 1 3.11-3.11 3.1 3.1 0 0 1-3.11 3.1zM4.65 12.22a4.15 4.15 0 1 0 4.15 4.15 4.16 4.16 0 0 0-4.15-4.15zm0 7.26a3.11 3.11 0 1 1 3.11-3.11 3.1 3.1 0 0 1-3.11 3.12zM4.65.5A4.15 4.15 0 1 0 8.8 4.65 4.16 4.16 0 0 0 4.65.5zm0 7.26a3.11 3.11 0 1 1 3.11-3.11 3.1 3.1 0 0 1-3.11 3.11zM32 24a4.15 4.15 0 1 0 4.15 4.15A4.16 4.16 0 0 0 32 24zm0 7.26a3.11 3.11 0 1 1 3.11-3.11 3.1 3.1 0 0 1-3.11 3.1z"
          class="svg_Hr3uVvrA"/>
</svg>
