<svg xmlns="http://www.w3.org/2000/svg" viewBox="0 0 47.77 49.4">
    <defs>
        <style>
            .svg_bvrIqK7U{stroke:currentColor;stroke-miterlimit:10;stroke-width:.6px}
        </style>
    </defs>
    <path d="M40 .3H7.8A7.55 7.55 0 0 0 .3 7.8v33.79a7.55 7.55 0 0 0 7.5 7.5H40a7.55 7.55 0 0 0 7.5-7.5V7.8A7.45 7.45 0 0 0 40 .3zm0 46.9H7.8a5.54 5.54 0 0 1-5.55-5.55v-25.3a1.14 1.14 0 0 0 .78.39h41.76a.93.93 0 0 0 .78-.39v25.31A5.54 5.54 0 0 1 40 47.2zm5.55-32.1a1.14 1.14 0 0 0-.78-.39H3a.93.93 0 0 0-.78.39V7.8A5.54 5.54 0 0 1 7.8 2.26H40a5.54 5.54 0 0 1 5.51 5.54l.07 7.31z"
          class="svg_bvrIqK7U"/>
    <path d="M16 8.13h-3.89a1 1 0 1 0 0 2H16a1 1 0 0 0 1-1 1 1 0 0 0-1-1zm19.72 0h-3.91a1 1 0 0 0 0 2h3.91a1 1 0 0 0 0-2zM18.31 23.2c0-.07-.07-.13-.07-.2s-.07-.13-.13-.13a1 1 0 0 0-1.37 0c-.07.07-.07.13-.13.13a.24.24 0 0 0-.07.2c0 .07-.07.13-.07.2v.2a1.37 1.37 0 0 0 .26.72 1.43 1.43 0 0 0 .33.2.83.83 0 0 0 .39.07 1.37 1.37 0 0 0 .72-.26 1.43 1.43 0 0 0 .2-.33.83.83 0 0 0 .07-.39v-.2c-.13-.08-.13-.15-.13-.21zm6.52 0c0-.07-.07-.13-.07-.2s-.07-.13-.13-.13a1.17 1.17 0 0 0-.91-.26.24.24 0 0 0-.2.07c-.07 0-.13.07-.2.07s-.13.07-.13.13-.07.13-.13.13a.24.24 0 0 0-.07.2c0 .07-.07.13-.07.2v.2A.83.83 0 0 0 23 24a1.43 1.43 0 0 0 .2.33 1 1 0 0 0 .72.26 1.37 1.37 0 0 0 .72-.26 1.43 1.43 0 0 0 .2-.33.83.83 0 0 0 .07-.39v-.2a.24.24 0 0 1-.08-.21zm6.52 0c0-.07-.07-.13-.07-.2s-.07-.13-.13-.13-.13-.07-.13-.13-.13-.07-.2-.07-.13-.07-.2-.07h-.39a.24.24 0 0 0-.2.07c-.07 0-.13.07-.2.07s-.13.07-.13.13-.07.13-.13.13a.24.24 0 0 0-.07.2c0 .07-.07.13-.07.2v.2a.83.83 0 0 0 .07.39 1.43 1.43 0 0 0 .2.33 1 1 0 0 0 .72.26 1.37 1.37 0 0 0 .72-.26 1 1 0 0 0 .26-.72v-.2a.24.24 0 0 1-.05-.2zm6.53 0c0-.07-.07-.13-.07-.2s-.07-.13-.13-.13a1 1 0 0 0-1.37 0c-.07.07-.07.13-.13.13a.24.24 0 0 0-.07.2c0 .07-.07.13-.07.2v.2a1.37 1.37 0 0 0 .26.72 1 1 0 0 0 .72.26 1.37 1.37 0 0 0 .72-.26 1.43 1.43 0 0 0 .2-.33.83.83 0 0 0 .07-.39v-.2c-.13-.07-.13-.14-.13-.2zm-26.1 6.52c0-.07-.07-.13-.07-.2s-.07-.13-.13-.13a1 1 0 0 0-1.37 0l-.13.13a.24.24 0 0 0-.07.2c0 .07-.07.13-.07.2v.2a1.37 1.37 0 0 0 .26.72 1 1 0 0 0 .72.26 1.37 1.37 0 0 0 .72-.26 1 1 0 0 0 .26-.72v-.2c-.12-.07-.12-.13-.12-.2zm6.53 0c0-.07-.07-.13-.07-.2s-.07-.13-.13-.13l-.11-.13c-.07 0-.13-.07-.2-.07s-.13-.07-.2-.07a1.17 1.17 0 0 0-.91.26l-.13.13a.24.24 0 0 0-.07.2c0 .07-.07.13-.07.2v.2a1.37 1.37 0 0 0 .26.72A1.43 1.43 0 0 0 17 31a.83.83 0 0 0 .39.07 1.37 1.37 0 0 0 .72-.26 1 1 0 0 0 .26-.72v-.2a.24.24 0 0 1-.06-.17zm6.52 0c0-.07-.07-.13-.07-.2s-.07-.13-.13-.13-.13-.07-.13-.13-.13-.07-.2-.07-.13-.07-.2-.07a1.17 1.17 0 0 0-.91.26l-.13.13a.24.24 0 0 0-.07.2c0 .07-.07.13-.07.2v.2a1.37 1.37 0 0 0 .26.72 1 1 0 0 0 .72.26.83.83 0 0 0 .39-.07 1.43 1.43 0 0 0 .33-.2 1 1 0 0 0 .26-.72v-.2a.24.24 0 0 1-.05-.18zm6.52 0c0-.07-.07-.13-.07-.2s-.07-.13-.13-.13l-.15-.13c-.07 0-.13-.07-.2-.07s-.13-.07-.2-.07a1.17 1.17 0 0 0-.91.26l-.13.13a.24.24 0 0 0-.07.2c0 .07-.07.13-.07.2v.2a1.37 1.37 0 0 0 .26.72A1.43 1.43 0 0 0 30 31a.83.83 0 0 0 .39.07 1.37 1.37 0 0 0 .72-.26 1 1 0 0 0 .26-.72v-.2a.24.24 0 0 1-.02-.17zm6.53 0c0-.07-.07-.13-.07-.2s-.07-.13-.13-.13a1 1 0 0 0-1.37 0l-.13.13a.24.24 0 0 0-.07.2c0 .07-.07.13-.07.2v.2a1.37 1.37 0 0 0 .26.72 1 1 0 0 0 .72.26.83.83 0 0 0 .39-.07 1.43 1.43 0 0 0 .33-.2 1 1 0 0 0 .26-.72v-.2c-.12-.06-.12-.12-.12-.19zm-26.1 6.53c0-.07-.07-.13-.07-.2s-.07-.13-.13-.13l-.13-.13c-.07 0-.13-.07-.2-.07s-.13-.07-.2-.07h-.39a.24.24 0 0 0-.2.07c-.07 0-.13.07-.2.07s-.13.07-.13.13L10 36a.24.24 0 0 0-.07.2c0 .07-.07.13-.07.2v.2a1.37 1.37 0 0 0 .26.72 1 1 0 0 0 .72.26.83.83 0 0 0 .39-.07 1.43 1.43 0 0 0 .33-.2 1 1 0 0 0 .26-.72v-.2a.24.24 0 0 1-.04-.14zm6.53 0c0-.07-.07-.13-.07-.2s-.07-.13-.13-.13-.13-.07-.13-.13-.13-.07-.2-.07-.13-.07-.2-.07h-.38a.24.24 0 0 0-.2.07c-.07 0-.13.07-.2.07s-.13.07-.13.13l-.13.13a.24.24 0 0 0-.07.2c0 .07-.07.13-.07.2v.2a1.37 1.37 0 0 0 .26.72 1.43 1.43 0 0 0 .33.2 1.21 1.21 0 0 0 .78 0 1.43 1.43 0 0 0 .33-.2 1 1 0 0 0 .26-.72v-.2a.24.24 0 0 1-.05-.2zm6.52 0c0-.07-.07-.13-.07-.2s-.07-.13-.13-.13-.13-.07-.13-.13-.13-.07-.2-.07-.13-.07-.2-.07h-.39a.24.24 0 0 0-.2.07c-.07 0-.13.07-.2.07s-.13.07-.13.13l-.13.13a.24.24 0 0 0-.07.2c0 .07-.07.13-.07.2v.2A.83.83 0 0 0 23 37a1.43 1.43 0 0 0 .2.33 1 1 0 0 0 .72.26.83.83 0 0 0 .39-.07 1.43 1.43 0 0 0 .33-.2 1 1 0 0 0 .26-.72v-.2a.24.24 0 0 1-.07-.15zm6.52 0c0-.07-.07-.13-.07-.2s-.07-.13-.13-.13l-.15-.13c-.07 0-.13-.07-.2-.07s-.13-.07-.2-.07h-.39a.24.24 0 0 0-.2.07c-.07 0-.13.07-.2.07s-.13.07-.13.13l-.13.13a.24.24 0 0 0-.07.2c0 .07-.07.13-.07.2v.2a1.37 1.37 0 0 0 .26.72 1.43 1.43 0 0 0 .33.2.83.83 0 0 0 .39.07 1.37 1.37 0 0 0 .72-.26 1 1 0 0 0 .26-.72v-.2a.24.24 0 0 1-.02-.21z"
          class="svg_bvrIqK7U"/>
</svg>
