<svg xmlns="http://www.w3.org/2000/svg" viewBox="0 0 39.37 49.9">
    <defs>
        <style>
            .svg_6lTVauwG{stroke:currentColor;stroke-miterlimit:10;stroke-width:.4px}
        </style>
    </defs>
    <path d="M18.42 1.25A1 1 0 0 1 19.47.2a1 1 0 0 1 1.05 1.05v40a1 1 0 0 1-1.05 1.05 1 1 0 0 1-1.05-1.05v-40zM1.25 49.7A1 1 0 0 1 .2 48.65a1 1 0 0 1 1.05-1.05h36.86a1 1 0 0 1 1.05 1.05 1 1 0 0 1-1.05 1.05H1.25z"
          class="svg_6lTVauwG"/>
    <path d="M35.8 23.37a1 1 0 0 1 1.47 0 1 1 0 0 1 0 1.47L20.21 42a1 1 0 0 1-1.47 0 1 1 0 0 1 0-1.47L35.8 23.37z"
          class="svg_6lTVauwG"/>
    <path d="M1.57 24.84a1 1 0 0 1 0-1.47 1 1 0 0 1 1.47 0H3l17.21 17.17a1 1 0 0 1 0 1.47 1 1 0 0 1-1.47 0L1.57 24.84z"
          class="svg_6lTVauwG"/>
</svg>
