<svg xmlns="http://www.w3.org/2000/svg" viewBox="0 0 49.66 49.7">
    <defs>
        <style>
            .svg_VojAckk9{stroke:currentColor;stroke-miterlimit:10;stroke-width:.2px}
        </style>
    </defs>
    <path d="M40.73.8a2.27 2.27 0 0 0-3.28 0L33 5.34l11.4 11.42 4.46-4.46a2.27 2.27 0 0 0 0-3.28zm3.67 12.52l-8-8 2.66-2.66 8.05 8.05zM31.81 6.43L2.64 35.6a2.75 2.75 0 0 0-.78 1.49L.14 46.32a3 3 0 0 0 .78 2.5 2.71 2.71 0 0 0 2 .78l.47-.08 9.23-1.72a2.75 2.75 0 0 0 1.44-.8l29.17-29.15zM12.42 45.38l-.16.08L3 47.18l-.31-.08-.08-.31L4 39.12l4.38 4.3a1.26 1.26 0 0 0 .86.39 1.26 1.26 0 0 0 .86-.39 1.23 1.23 0 0 0 0-1.72L5.38 37a.66.66 0 0 0-.38-.22L31.81 10l8.05 8z"
          class="svg_VojAckk9"/>
</svg>
