<svg xmlns="http://www.w3.org/2000/svg" viewBox="0 0 46.92 30.73">
    <defs>
        <style>
            .svg_6Cwb3GZy{stroke:currentColor;stroke-miterlimit:10;stroke-width:.25px}
        </style>
    </defs>
    <path d="M41.8 25.61H5.12a5 5 0 0 1-5-5V5.12a5 5 0 0 1 5-5H41.8a5 5 0 0 1 5 5v15.49a5 5 0 0 1-5 5zM5.12 2.12a2.94 2.94 0 0 0-3 3v15.49a2.94 2.94 0 0 0 3 3H41.8a2.94 2.94 0 0 0 3-3V5.12a2.94 2.94 0 0 0-3-3z"
          class="svg_6Cwb3GZy"/>
    <path d="M15.21 24.81v.7a2.94 2.94 0 0 1-3 3H9.12a2.94 2.94 0 0 1-3-3v-.8a1.88 1.88 0 0 1-.8.2 1.41 1.41 0 0 1-1.2-.6v1.3a5 5 0 0 0 5 5h3.1a5 5 0 0 0 5-5v-.8zM42.59 24a1.65 1.65 0 0 1-1.3.8.9.9 0 0 1-.5-.1v.8a2.94 2.94 0 0 1-3 3H34.7a2.94 2.94 0 0 1-3-3v-1.6a1.81 1.81 0 0 1-2 0v1.6a5 5 0 0 0 5 5h3.1a5 5 0 0 0 5-5V24zm-19.88-1.29H8.52a5.12 5.12 0 0 1-5.2-5V8a5.06 5.06 0 0 1 5.2-5h14.19a5.12 5.12 0 0 1 5.2 5v9.79a5.1 5.1 0 0 1-5.2 4.92zM8.52 5a3 3 0 0 0-3.1 3v9.79a3 3 0 0 0 3.1 3h14.19a3 3 0 0 0 3.1-3V8a3 3 0 0 0-3.1-3z"
          class="svg_6Cwb3GZy"/>
    <path d="M11.42 14a.94.94 0 0 1-1 1h-3.5a.94.94 0 0 1-1-1 .94.94 0 0 1 1-1h3.5a.94.94 0 0 1 1 1z"
          class="svg_6Cwb3GZy"/>
    <path d="M13.52 16.91a1 1 0 0 1-1.4 0l-2.2-2.2a1 1 0 0 1 0-1.4 1 1 0 0 1 1.4 0l2.2 2.2a1 1 0 0 1 0 1.4z"
          class="svg_6Cwb3GZy"/>
    <path d="M13.82 16.71a1 1 0 0 1-1.4.4 1 1 0 0 1-.4-1.4L15.71 9a1.17 1.17 0 0 1 1.4-.4 1 1 0 0 1 .4 1.4z"
          class="svg_6Cwb3GZy"/>
    <path d="M21.41 13.12a.9.9 0 0 1-.1 1.4 1 1 0 0 1-1.4 0l-4-4.3a.9.9 0 0 1 .1-1.4.9.9 0 0 1 1.4.1z"
          class="svg_6Cwb3GZy"/>
    <path d="M25.21 14a.94.94 0 0 1-1 1h-3.5a.94.94 0 0 1-1-1 .94.94 0 0 1 1-1h3.5a.94.94 0 0 1 1 1zm14.19-4a3.54 3.54 0 0 1-3.5-3.5 3.5 3.5 0 1 1 7 0 3.54 3.54 0 0 1-3.5 3.5zm0-5a1.54 1.54 0 0 0-1.5 1.5 1.5 1.5 0 0 0 3 0A1.54 1.54 0 0 0 39.4 5zm0 17.71a3.5 3.5 0 1 1 3.5-3.5 3.54 3.54 0 0 1-3.5 3.5zm0-5a1.5 1.5 0 1 0 1.5 1.5 1.54 1.54 0 0 0-1.5-1.5z"
          class="svg_6Cwb3GZy"/>
</svg>
