<svg xmlns="http://www.w3.org/2000/svg" viewBox="0 0 48.64 39.11">
    <defs>
        <style>
            .svg_CJHQiUIv{stroke:currentColor;stroke-miterlimit:10}
        </style>
    </defs>
    <path d="M46.55 10.9V9.31a3.93 3.93 0 0 0-4-4H24.87a2.16 2.16 0 0 1-1.67-.71l-2.93-2.91A4 4 0 0 0 17.49.5H6.06a3.93 3.93 0 0 0-4 4v1.56A4 4 0 0 0 .5 9.23v25.41a3.93 3.93 0 0 0 4 4h39.7a3.93 3.93 0 0 0 4-4V14.08a4 4 0 0 0-1.65-3.18zM3.68 4.55a2.34 2.34 0 0 1 2.38-2.38h11.35a2.16 2.16 0 0 1 1.67.71L22 5.82A4 4 0 0 0 24.79 7h17.79A2.34 2.34 0 0 1 45 9.39v.87a1.43 1.43 0 0 0-.79-.16H21.7a2.16 2.16 0 0 1-1.7-.71l-2.91-2.94a4 4 0 0 0-2.78-1.19H4.47a2.7 2.7 0 0 0-.79.08zm42.87 30.17a2.34 2.34 0 0 1-2.38 2.38H4.47a2.34 2.34 0 0 1-2.38-2.38V9.31a2.34 2.34 0 0 1 2.38-2.38h9.77a2.16 2.16 0 0 1 1.67.71l2.94 2.94a4 4 0 0 0 2.78 1.19h22.54a2.34 2.34 0 0 1 2.38 2.38z"
          class="svg_CJHQiUIv"/>
</svg>
