<svg xmlns="http://www.w3.org/2000/svg" viewBox="0 0 48.85 48.82">
    <defs>
        <style>
            .svg_0LG3ZU3U{stroke:currentColor;stroke-miterlimit:10;stroke-width:.25px}
        </style>
    </defs>
    <path d="M46.94 8.88l-7-7a6 6 0 0 0-8.51 0L21.17 12.17a6 6 0 0 0 0 8.51l.55.55L1.34 41.6a4.17 4.17 0 1 0 5.9 5.9l20.38-20.38.55.55a6 6 0 0 0 8.51 0l10.26-10.28a6 6 0 0 0 0-8.51zM5.55 45.81a1.79 1.79 0 0 1-2.53 0 1.83 1.83 0 0 1 0-2.53l20.39-20.37 2.53 2.53zM35 26a3.61 3.61 0 0 1-5.14 0l-1.43-1.43-4.21-4.21L22.86 19a3.61 3.61 0 0 1 0-5.14L33.13 3.58a3.61 3.61 0 0 1 5.14 0l7 7a3.61 3.61 0 0 1 0 5.14z"
          class="svg_0LG3ZU3U"/>
    <path d="M40.33 8.5a4.76 4.76 0 1 0 0 6.7 4.73 4.73 0 0 0 0-6.7zm-5.05 5.05a2.34 2.34 0 0 1 0-3.33 2.32 2.32 0 1 1 3.28 3.28 2.34 2.34 0 0 1-3.28.06z"
          class="svg_0LG3ZU3U"/>
</svg>
