<svg xmlns="http://www.w3.org/2000/svg" viewBox="0 0 49.27 41.2">
    <defs>
        <style>
            .svg_rdAVjHXY{stroke:currentColor;stroke-linecap:round;stroke-miterlimit:10;stroke-width:.5px}
        </style>
    </defs>
    <path d="M48.06 21.2l.85-.85-.85-.85-8.32-8.14a1.19 1.19 0 0 0-1.68 0 1.19 1.19 0 0 0 0 1.68l8.28 8.14V19.5l-8.19 8.33a1.19 1.19 0 0 0 0 1.67 1.19 1.19 0 0 0 1.69 0z"
          class="svg_rdAVjHXY"/>
    <path d="M45.11 21.45h1.2V19H19.95v2.41h25.16z" class="svg_rdAVjHXY"/>
    <path d="M31 3.71c-.75-.45-1.55-1-2.46-1.4A18 18 0 0 0 20.5.25 21.42 21.42 0 0 0 7.22 5.06a19.52 19.52 0 0 0-7 15.59 20 20 0 0 0 20.28 20.3 18.55 18.55 0 0 0 8.17-2 25.8 25.8 0 0 0 2.41-1.35 7.25 7.25 0 0 0 .9-.65l-1.5-1.85a.37.37 0 0 0-.15.15l-.55.4c-.6.4-1.35.8-2.11 1.2a16.22 16.22 0 0 1-7.12 1.75A17.63 17.63 0 0 1 2.66 20.65c0-5.86 2.21-10.53 6.11-13.73a19 19 0 0 1 11.78-4.26 15.5 15.5 0 0 1 7 1.8 18.2 18.2 0 0 1 2.21 1.25c.25.15.45.3.6.4a.69.69 0 0 1 .2.15L32 4.36a7.34 7.34 0 0 0-1-.65z"
          class="svg_rdAVjHXY"/>
</svg>
