<svg xmlns="http://www.w3.org/2000/svg" viewBox="0 0 44.75 50">
    <path d="M17 35.19A1.21 1.21 0 0 1 18.2 34h8.34a1.21 1.21 0 0 1 1.21 1.21V50h13.37a3.64 3.64 0 0 0 3.63-3.63V20.79a5 5 0 0 0-1.51-3.57l-18-16.08a4.11 4.11 0 0 0-5.62-.06L1.51 17.23A4.94 4.94 0 0 0 0 20.79v25.52a3.64 3.64 0 0 0 3.63 3.63H17zm-2.42 0v12.4H3.63a1.21 1.21 0 0 1-1.21-1.21V20.79A2.85 2.85 0 0 1 3.14 19L21.22 2.83a1.63 1.63 0 0 1 2.3.06L41.54 19a2.62 2.62 0 0 1 .79 1.81v25.5a1.21 1.21 0 0 1-1.21 1.21H30.17V35.19a3.64 3.64 0 0 0-3.63-3.63H18.2a3.6 3.6 0 0 0-3.63 3.63z"/>
</svg>
