<svg xmlns="http://www.w3.org/2000/svg" viewBox="0 0 39.24 36.3">
    <path d="M7.85 0a1.1 1.1 0 0 0-1 1v8.81H1a1.08 1.08 0 0 0-1 1v21.07a4.43 4.43 0 0 0 4.41 4.42h30.41a4.43 4.43 0 0 0 4.41-4.41V1a1 1 0 0 0-1-1zm1 2h28.43v29.88a2.43 2.43 0 0 1-2.45 2.45H8a4.27 4.27 0 0 0 .86-2.45zm3.9 2.9a1.08 1.08 0 0 0-1 1v6.87a1 1 0 0 0 1 1h9.81a1 1 0 0 0 1-1V5.89a1 1 0 0 0-1-1zm14.71 1a1 1 0 1 0 0 2h5.89a1 1 0 1 0 0-2zm-13.73 1h7.85v4.9h-7.85zm13.73 3.92a1 1 0 0 0 0 2h5.89a1 1 0 1 0 0-2zM2 11.77h4.9v20.11a2.43 2.43 0 0 1-2.45 2.45A2.43 2.43 0 0 1 2 31.88zm10.79 4.9a1 1 0 1 0 0 2h20.6a1 1 0 1 0 0-2zm0 5.4a1 1 0 1 0 0 2h20.6a1 1 0 1 0 0-2zm0 5.4a1 1 0 0 0 0 2h20.6a1 1 0 0 0 0-2z"/>
</svg>
