<svg xmlns="http://www.w3.org/2000/svg" viewBox="0 0 49.42 38.65">
    <defs>
        <style>
            .svg_opue1feG{stroke:currentColor;stroke-miterlimit:10;stroke-width:.25px}
        </style>
    </defs>
    <path d="M40 11.06V1.27A1.15 1.15 0 0 0 38.82.13H10.59a1.15 1.15 0 0 0-1.14 1.14v9.79a10.31 10.31 0 0 0 1 20.57h1.89v5.75a1.15 1.15 0 0 0 1.15 1.15h22.46a1.15 1.15 0 0 0 1.15-1.15v-5.76H39a10.31 10.31 0 0 0 1-20.57zM11.74 2.42h25.94V11H11.74zM34.8 36.23H14.61v-9.76H34.8zm4.2-6.9h-1.91v-2.86h2.72a1.15 1.15 0 1 0 0-2.29H9.6a1.15 1.15 0 0 0 0 2.29h2.72v2.86h-1.89a8 8 0 1 1 0-16H39a8 8 0 0 1 0 16zM34.46 5.57h-.3a1.15 1.15 0 1 0 0 2.29h.3a1.15 1.15 0 0 0 0-2.29zm-3.15 0H31a1.15 1.15 0 1 0 0 2.29h.3a1.15 1.15 0 1 0 0-2.29z"
          class="svg_opue1feG"/>
</svg>
