<svg xmlns="http://www.w3.org/2000/svg" viewBox="0 0 50 50">
    <path d="M3.85 0A3.87 3.87 0 0 0 0 3.85v42.3A3.87 3.87 0 0 0 3.85 50h33.33a1.28 1.28 0 1 0 0-2.56H3.85a1.25 1.25 0 0 1-1.28-1.28V3.85a1.25 1.25 0 0 1 1.28-1.29h5.77v16.67a1.28 1.28 0 0 0 1.28 1.28h25.64a1.28 1.28 0 0 0 1.28-1.28V2.56h.12l9.5 9.5v34.09a1.25 1.25 0 0 1-1.28 1.28 1.28 1.28 0 1 0 0 2.56A3.87 3.87 0 0 0 50 46.15V11.54a1.28 1.28 0 0 0-.38-.9L39.36.38a1.28 1.28 0 0 0-.9-.38zm8.33 2.56h23.08v15.39H12.18zM25 26.28A7.69 7.69 0 1 0 32.69 34 7.71 7.71 0 0 0 25 26.28zm0 2.56A5.13 5.13 0 1 1 19.87 34 5.11 5.11 0 0 1 25 28.85zm16.67 18.6a1.28 1.28 0 1 0 1.28 1.28 1.28 1.28 0 0 0-1.28-1.28z"/>
</svg>
