<svg xmlns="http://www.w3.org/2000/svg" viewBox="0 0 45.35 45.35">
    <defs>
        <style>
            .svg_0mzi7bpP{stroke:currentColor;stroke-miterlimit:10;stroke-width:.6px}
        </style>
    </defs>
    <path d="M11.17 22.42A1 1 0 0 1 10 23a8.3 8.3 0 0 1-1.35-.56l-1 .7a2.34 2.34 0 0 1-3-.28l-1.07-1a2.4 2.4 0 0 1-.28-3l.75-1a6.89 6.89 0 0 1-.56-1.35l-1.21-.23A2.22 2.22 0 0 1 .3 14v-1.52a2.31 2.31 0 0 1 1.91-2.29L3.43 10A6.89 6.89 0 0 1 4 8.61l-.7-1a2.34 2.34 0 0 1 .28-2.94l1.06-1.1a2.34 2.34 0 0 1 3-.28l1 .75A6.89 6.89 0 0 1 10 3.47l.23-1.21a2.22 2.22 0 0 1 2.24-2H14a2.31 2.31 0 0 1 2.3 1.95l.23 1.21a6.89 6.89 0 0 1 1.36.58l1-.7a2.39 2.39 0 0 1 3 .23L23 4.59a2.33 2.33 0 0 1 .23 3l-.7 1c.19.42.37.89.56 1.35a.93.93 0 0 1-.56 1.21.92.92 0 0 1-1.21-.56A15.25 15.25 0 0 0 20.64 9a.84.84 0 0 1 0-1l1.07-1.49a.42.42 0 0 0 0-.56l-1.07-1.03a.42.42 0 0 0-.56 0l-1.59 1a1 1 0 0 1-1 0 8.33 8.33 0 0 0-2-.84.89.89 0 0 1-.7-.75l-.33-1.77a.45.45 0 0 0-.46-.35h-1.52a.45.45 0 0 0-.47.37l-.33 1.77a.89.89 0 0 1-.7.75 7.61 7.61 0 0 0-2 .84.93.93 0 0 1-1 0L6.51 4.83a.42.42 0 0 0-.56 0L4.87 5.95a.42.42 0 0 0 0 .56L5.9 8a.93.93 0 0 1 0 1 8.33 8.33 0 0 0-.84 2 1 1 0 0 1-.75.7l-1.72.3a.45.45 0 0 0-.37.47V14a.38.38 0 0 0 .37.42l1.77.33a.9.9 0 0 1 .75.65 7.61 7.61 0 0 0 .84 2 .92.92 0 0 1 0 1l-1.12 1.54a.42.42 0 0 0 0 .56l1.07 1.07a.42.42 0 0 0 .56 0L8 20.55a.93.93 0 0 1 1 0 6.37 6.37 0 0 0 1.54.65 1.13 1.13 0 0 1 .63 1.22zm23 5.83a5.93 5.93 0 1 1-5.93-5.93 5.93 5.93 0 0 1 5.93 5.93zm-1.87 0a4.06 4.06 0 1 0-4.06 4.06 4.06 4.06 0 0 0 4.07-4.06zm12.74-1v2A2.75 2.75 0 0 1 42.76 32l-1.82.33a19.69 19.69 0 0 1-.84 2.1l1.07 1.49a2.71 2.71 0 0 1-.33 3.55l-1.44 1.42a2.82 2.82 0 0 1-3.55.33l-1.49-1.12a10.38 10.38 0 0 1-2.1.84L32 42.76A2.79 2.79 0 0 1 29.28 45h-2a2.75 2.75 0 0 1-2.71-2.29l-.33-1.82a19.69 19.69 0 0 1-2.1-.84l-1.49 1.07a2.76 2.76 0 0 1-3.55-.28l-1.4-1.45a2.82 2.82 0 0 1-.33-3.55l1.07-1.49a10.38 10.38 0 0 1-.84-2.1L13.78 32a2.75 2.75 0 0 1-2.29-2.71v-2a2.79 2.79 0 0 1 2.29-2.71l1.82-.33a19.69 19.69 0 0 1 .84-2.1l-1.07-1.49a2.71 2.71 0 0 1 .33-3.55l1.4-1.4a2.82 2.82 0 0 1 3.55-.33l1.49 1.07a10.38 10.38 0 0 1 2.1-.84l.33-1.82a2.8 2.8 0 0 1 2.71-2.29h2A2.75 2.75 0 0 1 32 13.78l.33 1.82a19.69 19.69 0 0 1 2.1.84l1.49-1.07a2.71 2.71 0 0 1 3.55.33l1.4 1.4a2.82 2.82 0 0 1 .33 3.55l-1.1 1.49a10.38 10.38 0 0 1 .84 2.1l1.82.33a2.72 2.72 0 0 1 2.24 2.7zm-1.87 0a.94.94 0 0 0-.75-.89L40.05 26a.89.89 0 0 1-.75-.7 14.19 14.19 0 0 0-1.12-2.75.92.92 0 0 1 0-1l1.4-2a.92.92 0 0 0-.09-1.17L38.09 17a.86.86 0 0 0-1.17-.09l-2 1.4a1 1 0 0 1-1 0 9.49 9.49 0 0 0-2.75-1.12.84.84 0 0 1-.65-.75l-.37-2.38a.85.85 0 0 0-.89-.7h-2a.94.94 0 0 0-.89.75L26 16.44a.89.89 0 0 1-.7.75 14.19 14.19 0 0 0-2.75 1.12.84.84 0 0 1-1 0l-2-1.4a.92.92 0 0 0-1.15.09L17 18.4a.86.86 0 0 0-.09 1.17l1.4 2a1 1 0 0 1 0 1 9.49 9.49 0 0 0-1.12 2.75.84.84 0 0 1-.75.65l-2.38.42a.85.85 0 0 0-.7.89v2a.9.9 0 0 0 .7.89l2.38.42a.9.9 0 0 1 .75.65A14.19 14.19 0 0 0 18.36 34a.92.92 0 0 1 0 1l-1.4 2a.91.91 0 0 0 .04 1.09l1.4 1.45a.92.92 0 0 0 1.17.09l2-1.4a1 1 0 0 1 1 0 9.49 9.49 0 0 0 2.75 1.12 1 1 0 0 1 .7.75l.42 2.38a.94.94 0 0 0 .89.75h2a.94.94 0 0 0 .89-.75l.42-2.38a.9.9 0 0 1 .65-.75A14.19 14.19 0 0 0 34 38.19a.92.92 0 0 1 1 0l2 1.4a.91.91 0 0 0 1.12-.09l1.35-1.45a.86.86 0 0 0 .09-1.17l-1.4-2a1 1 0 0 1 0-1 9.49 9.49 0 0 0 1.12-2.75.84.84 0 0 1 .75-.65l2.38-.37a.94.94 0 0 0 .75-.89z"
          class="svg_0mzi7bpP"/>
</svg>
