<svg xmlns="http://www.w3.org/2000/svg" viewBox="0 0 37.12 43.17">
    <defs>
        <style>
            .svg_SkKIAlAW{stroke:currentColor;stroke-miterlimit:10;stroke-width:.5px}
        </style>
    </defs>
    <path d="M26.27 3.54h-2.59c-1.1-4.38-9.25-4.38-10.35 0h-2.66a2.55 2.55 0 0 0-2.54 2.54v1.23H4.32a4.07 4.07 0 0 0-4.07 4.07v27.47a4.07 4.07 0 0 0 4.07 4.07h28.49a4.07 4.07 0 0 0 4.07-4.07V11.38a4.07 4.07 0 0 0-4.07-4.07h-4V6.08a2.55 2.55 0 0 0-2.54-2.54zm6.53 5.81a2 2 0 0 1 2 2v27.5a2 2 0 0 1-2 2H4.32a2 2 0 0 1-2-2V11.38a2 2 0 0 1 2-2h3.81v.5a2.55 2.55 0 0 0 2.54 2.54h15.6a2.55 2.55 0 0 0 2.54-2.54v-.5zM15.7 18.5a1 1 0 0 0 1 1h12.23a1 1 0 0 0 0-2H16.72a1 1 0 0 0-1.02 1zm13.23 7.12H16.72a1 1 0 0 0 0 2h12.21a1 1 0 0 0 0-2zm0 8.14H16.72a1 1 0 0 0 0 2h12.21a1 1 0 0 0 0-2zM7.18 18.5a1 1 0 0 0 1 1h12.23a1 1 0 0 0 0-2H8.2a1 1 0 0 0-1.02 1zm13.23 7.12H8.2a1 1 0 1 0 0 2h12.21a1 1 0 0 0 0-2zm0 8.14H8.2a1 1 0 1 0 0 2h12.21a1 1 0 0 0 0-2zM10.16 6.08a.52.52 0 0 1 .51-.51h3.56a1 1 0 0 0 1-1c0-1.59 1.69-2.31 3.26-2.31s3.26.72 3.26 2.31a1 1 0 0 0 1 1h3.49a.51.51 0 0 1 .51.51v1.85c-.05.12 0 1.91 0 1.91a.51.51 0 0 1-.51.51H10.67a.52.52 0 0 1-.51-.51z"
          class="svg_SkKIAlAW"/>
</svg>
