<svg xmlns="http://www.w3.org/2000/svg" viewBox="0 0 36.75 49.42">
    <defs>
        <style>
            .svg_3bOBvA8c{stroke:currentColor;stroke-miterlimit:10;stroke-width:.25px}
        </style>
    </defs>
    <path d="M14.46 41.67a1.08 1.08 0 0 0 1.07-1.07L15 11.72a1.07 1.07 0 0 0-2.15 0l.54 28.88a1 1 0 0 0 1.07 1.07zm7.84 0a1.08 1.08 0 0 0 1.07-1.07l.54-28.88a1.08 1.08 0 0 0-1.07-1.07 1.08 1.08 0 0 0-1.07 1.07l-.55 28.88a1.08 1.08 0 0 0 1.07 1.07zm10.57-31a1.11 1.11 0 0 0-1.13 1l-1.07 33.44A1.92 1.92 0 0 1 28.73 47H8a1.92 1.92 0 0 1-1.93-1.93L5 11.77a1 1 0 0 0-1.13-1 1 1 0 0 0-1 1.13l1.07 33.31A4.08 4.08 0 0 0 8 49.29h20.73a4.07 4.07 0 0 0 4.08-4l1.07-33.33a1.06 1.06 0 0 0-1.01-1.26zm2.68-5.37h-8.64L26 1a1.1 1.1 0 0 0-1.08-.87H11.77A1.14 1.14 0 0 0 10.7 1l-.91 4.33H1.2a1.07 1.07 0 0 0 0 2.15h34.35a1.07 1.07 0 1 0 0-2.15zM12 5.33l.64-3.06h11.48l.64 3.06z"
          class="svg_3bOBvA8c"/>
</svg>
