<svg xmlns="http://www.w3.org/2000/svg" viewBox="0 0 39.37 49.9">
    <defs>
        <style>
            .svg_PfsHhZje{stroke:currentColor;stroke-miterlimit:10;stroke-width:.4px}
        </style>
    </defs>
    <path d="M20.42 41.27a1 1 0 0 1-1.05 1.05 1 1 0 0 1-1.05-1.05v-40A1 1 0 0 1 19.37.2a1 1 0 0 1 1.05 1.05v40zM1.25 49.7A1 1 0 0 1 .2 48.65a1 1 0 0 1 1.05-1.05h36.86a1 1 0 0 1 1.05 1.05 1 1 0 0 1-1.05 1.05H1.25z"
          class="svg_PfsHhZje"/>
    <path d="M3 19.16a1 1 0 0 1-1.47 0 1 1 0 0 1 0-1.47L18.63.52a1 1 0 0 1 1.47 0 1 1 0 0 1 0 1.47L3 19.16z"
          class="svg_PfsHhZje"/>
    <path d="M37.27 17.68a1 1 0 0 1 0 1.47 1 1 0 0 1-1.47 0L18.63 2a1 1 0 0 1 0-1.47 1 1 0 0 1 1.47 0l17.17 17.15z"
          class="svg_PfsHhZje"/>
</svg>
