<svg xmlns="http://www.w3.org/2000/svg" viewBox="0 0 49.57 38.36">
    <defs>
        <style>
            .svg_gvowz1nQ{stroke:currentColor;stroke-miterlimit:10;stroke-width:.25px}
        </style>
    </defs>
    <path d="M14.7.13a3.94 3.94 0 0 0-1.8.35 3.24 3.24 0 0 0-1.45 1.61L8.69 8.25a2.8 2.8 0 0 0-2.4-1.4H2.93a2.82 2.82 0 0 0-2.8 2.8v1.12a2.82 2.82 0 0 0 2.8 2.8h3.4l-1 2.24H3.58a3.46 3.46 0 0 0-3.45 3.46v6.53a3.48 3.48 0 0 0 3.45 3.47h1.59v5.6a3.14 3.14 0 0 0 1.51 2.61 5.58 5.58 0 0 0 3 .75 5.58 5.58 0 0 0 3-.75 3.14 3.14 0 0 0 1.51-2.61v-5.6h21.3v5.6A3.14 3.14 0 0 0 37 37.48a6.26 6.26 0 0 0 6 0 3.14 3.14 0 0 0 1.51-2.61v-5.6H46a3.48 3.48 0 0 0 3.45-3.47v-6.53A3.46 3.46 0 0 0 46 15.82h-1.76l-1-2.24h3.4a2.82 2.82 0 0 0 2.8-2.8V9.65a2.82 2.82 0 0 0-2.8-2.8h-3.36a2.8 2.8 0 0 0-2.4 1.4l-2.75-6.16A3.24 3.24 0 0 0 36.68.48a3.94 3.94 0 0 0-1.8-.35H14.7zm0 2.24h20.17a1.94 1.94 0 0 1 .81.12c.14.07.26.15.42.51l5.71 12.82h-9l5.83-2.33a1.12 1.12 0 1 0-.84-2.08l-11 4.41h-9.67L23 13.49a1.12 1.12 0 1 0-.84-2.08l-11 4.41h-3.4L13.47 3c.16-.36.28-.44.42-.51a1.94 1.94 0 0 1 .81-.12zM2.93 9.09h3.36a.54.54 0 0 1 .56.56v1.12a.54.54 0 0 1-.56.56H2.93a.54.54 0 0 1-.56-.56V9.65a.54.54 0 0 1 .56-.56zm40.35 0h3.36a.54.54 0 0 1 .56.56v1.12a.54.54 0 0 1-.56.56h-3.36a.54.54 0 0 1-.56-.56V9.65a.54.54 0 0 1 .56-.56zm-39.7 9H46a1.18 1.18 0 0 1 1.21 1.21v6.5A1.19 1.19 0 0 1 46 27H3.58a1.19 1.19 0 0 1-1.21-1.2v-6.53a1.18 1.18 0 0 1 1.21-1.21zm6.08 1.12A3.36 3.36 0 1 0 13 22.54a3.38 3.38 0 0 0-3.35-3.36zm30.26 0a3.36 3.36 0 1 0 3.36 3.36 3.38 3.38 0 0 0-3.36-3.39zM9.65 21.42a1.12 1.12 0 1 1-1.12 1.12 1.1 1.1 0 0 1 1.12-1.12zm6.62 0a1.12 1.12 0 1 0 .1 2.24h16.82a1.12 1.12 0 1 0 0-2.24H16.27zm23.64 0a1.12 1.12 0 1 1-1.12 1.12 1.1 1.1 0 0 1 1.13-1.12zm-32.5 7.85h4.48v5.6c0 .34-.09.47-.46.7a3.56 3.56 0 0 1-1.78.43 3.56 3.56 0 0 1-1.79-.42c-.36-.23-.46-.36-.46-.7zm30.26 0h4.48v5.6c0 .34-.09.47-.46.7a4 4 0 0 1-3.57 0c-.36-.23-.46-.36-.46-.7z"
          class="svg_gvowz1nQ"/>
</svg>
